<!--skills-->
<svg width="50" height="50" viewBox="0 0 50 50" fill="none" xmlns="http://www.w3.org/2000/svg">
    <g id="codeSvg">
        <path fill-rule="evenodd" clip-rule="evenodd"
              d="M18.3125 42.0645L27.2623 6.6875L31.4375 7.87241L22.4878 43.3125L18.3125 42.0645Z" fill="#7572D5"/>
        <path fill-rule="evenodd" clip-rule="evenodd"
              d="M13.5025 12.6875L16.5625 15.9278L7.99501 25.0001L16.5625 34.0721L13.5025 37.3125L1.875 25.0001L13.5025 12.6875Z"
              fill="#7572D5"/>
        <path fill-rule="evenodd" clip-rule="evenodd"
              d="M36.4976 12.6875L33.4375 15.9278L42.0051 25.0001L33.4375 34.0721L36.4976 37.3125L48.125 25.0001L36.4976 12.6875Z"
              fill="#7572D5"/>
    </g>
    <g id="css">
        <path d="M32.5524 8.27498L7.4476 8.26898L7.85306 13.186L27.1397 13.189L26.6535 18.2815H14.005L14.4623 23.1054H26.2373L25.5407 29.7119L19.9985 31.2199L14.3678 29.7014L14.0096 25.7447H9.03742L9.58921 32.9724L19.9985 36.1653L30.2324 33.2965L32.5509 8.27648L32.5524 8.27498ZM0 0H40L36.3616 40.4311L19.9558 45L3.64149 40.4281L0 0Z"
              fill="#7572D5"/>
    </g>
    <g id="react">
        <path d="M47.8125 25C47.8125 22.0833 44.6875 19.375 39.4792 17.5L38.5417 17.1875V16.7708C39.6875 11.0416 38.8542 6.7708 36.25 5.2083C33.6458 3.6458 29.7917 5.10414 25.625 8.74997L25 9.37497L24.7917 9.16664H24.5833C20.3125 5.2083 16.1458 3.85414 13.5417 5.31247C10.9375 6.7708 10.2083 10.8333 11.25 16.1458C11.3596 16.4838 11.4295 16.8333 11.4583 17.1875L10.3125 17.6041C5.20833 19.375 2.1875 22.0833 2.1875 25C2.1875 27.9166 5.52083 30.8333 10.7292 32.7083L11.4583 32.9166C11.3296 33.2854 11.2593 33.672 11.25 34.0625C10.2083 39.2708 11.1458 43.2291 13.5417 44.6875C15.9375 46.1458 20.3125 44.7916 24.4792 41.1458L25.1042 40.625L25.9375 41.4583C28.8542 43.9583 31.7708 45.3125 34.0625 45.3125C34.8708 45.3309 35.6671 45.1137 36.3542 44.6875C38.9583 43.2291 39.8958 38.9583 38.75 33.5416V33.3333C38.705 33.1619 38.6702 32.988 38.6458 32.8125H38.9583C44.4792 30.8333 47.8125 28.0208 47.8125 25ZM44.7917 25C44.7917 26.25 42.5 28.4375 38.0208 29.8958H37.8125C37.2664 28.2202 36.6051 26.5843 35.8333 25C36.5625 23.3333 37.1875 21.6666 37.7083 20.1041L38.5417 20.3125C42.7083 21.7708 44.7917 23.75 44.7917 25ZM27.9167 39.1666L27.0833 38.5416C28.2761 37.2201 29.3891 35.8287 30.4167 34.375L35.7292 33.5416C35.8333 33.75 35.8333 33.9583 35.9375 34.0625C36.3087 35.9492 36.379 37.8829 36.1458 39.7916C35.9995 40.7045 35.5608 41.5452 34.8958 42.1875C33.8542 42.8125 31.0417 41.9791 27.9167 39.1666ZM26.5625 34.5833L25.1042 36.4583L23.4375 34.5833H26.5625ZM12.2917 20C12.8152 21.7174 13.4771 23.3895 14.2708 25C13.4765 26.646 12.8146 28.3528 12.2917 30.1041L11.6667 29.8958C9.84256 29.3201 8.1454 28.4008 6.66667 27.1875C6.28377 26.9455 5.95605 26.6257 5.7048 26.2488C5.45356 25.872 5.2844 25.4465 5.20833 25C5.20833 23.75 7.29167 21.7708 11.25 20.4166L12.2917 20ZM23.4375 15.4166L25 13.6458L26.5625 15.4166H23.4375ZM34.8958 7.81247C36.0417 8.43747 36.6667 11.5625 35.7292 16.1458C35.734 16.2022 35.7272 16.2591 35.7093 16.3128C35.6914 16.3665 35.6627 16.416 35.625 16.4583L30.4167 15.625C29.3891 14.1712 28.2761 12.7799 27.0833 11.4583L27.7083 10.9375C31.0417 8.0208 33.75 7.18747 34.8958 7.81247ZM17.5 18.8541L16.6667 20.2083L15.9375 21.5625C15.625 20.8333 15.4167 20.1041 15.1042 19.2708L17.5 18.8541ZM15.1042 30.7291C15.4167 30 15.625 29.2708 15.9375 28.4375L16.6667 29.7916L17.5 31.1458L15.1042 30.7291ZM32.5 25C31.9699 26.142 31.3788 27.2548 30.7292 28.3333C30.1042 29.4791 29.375 30.5208 28.75 31.5625H21.25C20.5208 30.4166 19.7917 29.375 19.2708 28.3333C18.6161 27.2577 18.0248 26.1447 17.5 25C18.0054 23.8458 18.5974 22.7315 19.2708 21.6666C19.8693 20.5874 20.5301 19.544 21.25 18.5416C23.7457 18.3334 26.2543 18.3334 28.75 18.5416C29.4792 19.5833 30.1042 20.625 30.7292 21.6666C31.4026 22.7315 31.9946 23.8458 32.5 25ZM33.3333 20.2083L32.5 18.8541L34.8958 19.375C34.6639 20.1208 34.3856 20.8514 34.0625 21.5625L33.3333 20.2083ZM32.5 31.1458L33.3333 29.7916L34.0625 28.3333L35 30.7291L32.5 31.1458ZM22.8125 11.3541H22.9167L19.5833 15.5208L14.375 16.3541C14.2708 16.0416 14.2708 15.8333 14.1667 15.5208C13.3333 11.25 13.9583 8.3333 15 7.81247C15.2766 7.63082 15.61 7.55672 15.9375 7.60414C17.3958 7.60414 19.8958 8.6458 22.7083 11.1458L22.8125 11.3541ZM14.1667 34.5833C14.1857 34.2617 14.256 33.9452 14.375 33.6458L19.6875 34.375C20.689 35.8481 21.8034 37.2412 23.0208 38.5416L22.8125 38.75L22.6042 38.9583C21.184 40.2738 19.5211 41.2999 17.7083 41.9791C17.3107 42.1874 16.875 42.3133 16.4275 42.3491C15.98 42.3849 15.5299 42.3299 15.1042 42.1875C13.9583 41.5625 13.3333 38.75 14.1667 34.5833Z"
              fill="#7572D5"/>
        <path d="M25 20.4166C24.0894 20.3959 23.1932 20.647 22.4259 21.1379C21.6586 21.6287 21.0549 22.3371 20.692 23.1726C20.3291 24.008 20.2233 24.9327 20.3882 25.8285C20.5532 26.7243 20.9812 27.5507 21.6179 28.2022C22.2545 28.8536 23.0709 29.3006 23.9627 29.4861C24.8545 29.6715 25.7813 29.587 26.6249 29.2434C27.4685 28.8998 28.1905 28.3126 28.6989 27.5568C29.2073 26.801 29.4789 25.9108 29.4792 24.9999C29.4795 23.8022 29.0109 22.6519 28.1738 21.7953C27.3366 20.9387 26.1974 20.4438 25 20.4166Z"
              fill="#7572D5"/>
    </g>
    <g id="ts">
        <path d="M5 25V45H45V5H5V25ZM37.235 23.4067C38.2517 23.66 39.025 24.1117 39.7367 24.8483C40.105 25.2417 40.6517 25.9583 40.695 26.1317C40.7083 26.1817 38.9683 27.3483 37.915 28.0033C37.8767 28.0283 37.7233 27.8633 37.5533 27.61C37.0367 26.86 36.4983 26.5367 35.6733 26.48C34.46 26.3967 33.68 27.0317 33.6867 28.0917C33.6756 28.3523 33.7343 28.6112 33.8567 28.8417C34.1233 29.3933 34.62 29.725 36.1733 30.3967C39.0383 31.63 40.2633 32.4417 41.025 33.5967C41.875 34.885 42.0667 36.9433 41.4883 38.4733C40.855 40.1367 39.28 41.2667 37.0633 41.64C36.3783 41.7617 34.7533 41.7433 34.0167 41.61C32.41 41.3233 30.8867 40.53 29.9467 39.4883C29.5783 39.0833 28.86 38.0217 28.905 37.9467C28.9233 37.92 29.0883 37.8183 29.2717 37.7117C29.4517 37.61 30.1233 37.2217 30.7583 36.8533L31.9083 36.1867L32.15 36.5433C32.4867 37.0567 33.2217 37.7617 33.6667 37.9967C34.9433 38.67 36.695 38.575 37.5583 37.8C37.7319 37.6538 37.8694 37.4693 37.9599 37.2612C38.0504 37.053 38.0915 36.8267 38.08 36.6C38.08 36.1367 38.0217 35.9333 37.78 35.5833C37.47 35.14 36.835 34.7667 35.0317 33.9833C32.9683 33.095 32.08 32.5433 31.2667 31.6667C30.759 31.0881 30.3841 30.4055 30.1683 29.6667C30.0167 29.1017 29.9783 27.685 30.0983 27.115C30.5233 25.12 32.0283 23.7317 34.2 23.3183C34.905 23.185 36.5433 23.235 37.235 23.4067ZM27.845 25.0767L27.8583 26.715H22.65V41.5083H18.9667V26.715H13.7633V25.1083C13.7633 24.2183 13.7817 23.475 13.8067 23.4583C13.8267 23.4317 16.995 23.4183 20.835 23.425L27.8267 23.445L27.845 25.0767Z"
              fill="#7572D5"/>
    </g>
    <g id="styled-components">
        <path d="M31.0091 0L30.7388 1.39963C30.3208 4.05212 30.4721 4.81099 31.6182 5.79539L32.7247 6.70461L31.5786 11.7805C30.8938 14.8088 30.0541 17.3468 29.5207 18.1808C29.063 18.9003 28.5296 19.9599 28.4142 20.5291C28.2232 21.2092 27.5745 21.8929 26.5834 22.4978C25.7076 22.9918 23.9885 24.3163 22.7703 25.3794C21.7972 26.2493 21.1269 26.7826 20.7629 27.0117L19.5735 27.946C19.1915 28.5546 18.9753 29.045 18.8924 29.4172C18.8095 29.8003 18.8563 30.0544 18.9789 30.2405C19.0978 30.4195 19.3032 30.5448 19.5843 30.6236C19.9171 30.701 20.2597 30.7288 20.6007 30.7059C21.3722 30.6535 22.1358 30.5191 22.8784 30.305C23.1307 30.237 23.3289 30.1725 23.5019 30.1153C23.7686 29.7895 24.3849 29.1738 25.4769 28.1035C28.3746 25.2649 29.481 23.7113 28.3385 24.1302C27.9169 24.2805 28.1079 23.9011 28.8323 23.1422C30.3604 21.6638 31.2362 19.4301 33.067 12.4248C34.5159 6.89433 34.5159 6.81558 35.5827 6.81558C36.0836 6.81558 37.5 6.90149 37.5 6.90149V0H34.2492H31.0091ZM18.1716 11.8306C17.1192 11.8235 14.8558 13.4164 8.08025 18.9111C7.78832 19.6019 7.76309 20.078 7.89644 20.3859C7.98294 20.5971 8.14152 20.7438 8.36137 20.8512C8.57761 20.9586 8.85873 21.0231 9.16867 21.0481C9.78496 21.1018 10.513 21.0052 11.1004 20.8906L11.4969 20.8011C11.6326 20.6204 11.8108 20.4754 12.0159 20.3787C12.4339 20.1496 14.1891 18.5603 15.9443 16.8564C19.0329 13.7493 19.7573 12.3461 18.4995 11.8915C18.3963 11.8507 18.2826 11.83 18.1716 11.8306ZM26.086 13.9891C25.1598 14.0142 23.4911 15.0809 20.6331 17.3468C19.1987 18.503 18.2905 19.1259 17.8039 19.2547L15.9154 20.7367C15.2054 22.0253 15.1009 22.8236 15.2883 23.2639C15.3352 23.3725 15.4033 23.4708 15.4887 23.5531C15.5741 23.6355 15.675 23.7002 15.7857 23.7436C16.061 23.8515 16.3546 23.9062 16.6506 23.9046C17.358 23.8971 18.0612 23.7948 18.741 23.6004C19.0953 23.5059 19.4452 23.3961 19.7898 23.271L19.8943 23.2281L20.0853 23.1279C20.4457 22.6661 21.2746 21.7962 22.3126 20.794C25.5923 17.6511 27.2681 15.4174 26.9258 14.5833C26.7708 14.1788 26.5041 13.9748 26.086 13.9891ZM17.3498 17.8551C17.0831 17.8837 16.4849 18.3419 15.4073 19.2798C13.8503 20.6472 12.1528 21.4347 11.5654 21.0839C11.4288 21.1145 11.2919 21.1432 11.1545 21.1698C10.5562 21.2879 9.81019 21.3846 9.14344 21.3309C8.82929 21.312 8.52137 21.2355 8.23523 21.1054C7.96533 20.9828 7.74994 20.7664 7.62975 20.4968C7.4964 20.1747 7.4964 19.7738 7.64777 19.2619L5.30514 21.1734L0.00360481 25.5298V32.5924L17.3751 19.0006C17.3717 18.8518 17.3911 18.7033 17.4327 18.5603C17.5661 18.0806 17.5589 17.8372 17.3498 17.8587V17.8551ZM24.8246 20.1425C24.5615 20.1425 24.1218 20.5112 23.419 21.2521C22.464 22.2652 20.9611 23.246 20.1646 23.4464L20.042 23.5109C19.9113 23.5645 19.7791 23.6146 19.6456 23.6612C19.4294 23.7328 19.1482 23.8187 18.8239 23.9046C18.1752 24.08 17.3679 24.2411 16.647 24.2232C16.3072 24.2228 15.9707 24.1572 15.6559 24.0299C15.3593 23.9085 15.1216 23.6775 14.9928 23.3856C14.7838 22.888 14.8667 22.19 15.3244 21.1985L0 33.1866V37.5H6.73234L21.0115 26.3603C21.3827 25.9522 21.9414 25.3938 22.6946 24.6957C24.7129 22.8379 25.1706 22.1972 25.1706 21.2486C25.1706 20.5112 25.0877 20.1389 24.8246 20.1389V20.1425ZM28.2232 27.1227L27.0014 28.3326C26.3167 28.9769 25.0949 29.7716 24.2588 30.1117L24.093 30.1833L24.0822 30.2012L24.0461 30.237C24.0137 30.262 23.9993 30.2656 23.9741 30.2763C23.6403 30.4018 23.3012 30.5129 22.9577 30.6092C22.1941 30.83 21.4086 30.968 20.6151 31.0209C20.2399 31.0448 19.8632 31.0122 19.4978 30.9243C19.1807 30.8549 18.9008 30.6713 18.7122 30.4088C18.5392 30.1439 18.4887 29.7895 18.586 29.3528C18.6634 29.0419 18.7784 28.7414 18.9284 28.4579L7.4063 37.5H22.7307L24.5615 35.4167C27.0771 32.5029 28.2232 30.4195 28.2232 28.6369V27.1227Z"
              fill="#7572D5"/>
    </g>
    <g id="web-d">
        <path d="M17.7083 4.16663C14.2565 4.16663 11.4583 6.96486 11.4583 10.4166C11.4583 13.8684 14.2565 16.6666 17.7083 16.6666H32.2916C35.7435 16.6666 38.5416 13.8684 38.5416 10.4166C38.5416 6.96486 35.7435 4.16663 32.2916 4.16663H17.7083Z"
              fill="#7572D5"/>
        <path d="M32.2917 18.75C28.8398 18.75 26.0417 21.5481 26.0417 25C26.0417 28.4519 28.8398 31.25 32.2917 31.25C35.7436 31.25 38.5417 28.4519 38.5417 25C38.5417 21.5481 35.7436 18.75 32.2917 18.75Z"
              fill="#7572D5"/>
        <path d="M11.4583 25C11.4583 21.5481 14.2565 18.75 17.7083 18.75H23.9583V31.25H17.7083C14.2565 31.25 11.4583 28.4519 11.4583 25Z"
              fill="#7572D5"/>
        <path d="M17.7083 33.3334C14.2565 33.3334 11.4583 36.1315 11.4583 39.5834C11.4583 43.0352 14.2565 45.8334 17.7083 45.8334C21.1602 45.8334 23.9583 43.0352 23.9583 39.5834V33.3334H17.7083Z"
              fill="#7572D5"/>
    </g>

    <!--    social-->
    <g id="instagram">
        <path d="M15.6516 2.09998H5.34844C3.55687 2.09998 2.1 3.55628 2.1 5.34715V8.77799V15.6528C2.1 17.4437 3.55687 18.9 5.34844 18.9H15.6516C17.4431 18.9 18.9 17.4437 18.9 15.6528V8.77143V5.34058C18.8934 3.55628 17.4366 2.09998 15.6516 2.09998ZM16.5834 4.03516H16.9575V4.40251V6.88217L14.1159 6.88873L14.1094 4.04172L16.5834 4.03516ZM8.09812 8.77143C8.63625 8.03016 9.50906 7.53816 10.4934 7.53816C11.4778 7.53816 12.3506 8.0236 12.8887 8.77143C13.2431 9.25687 13.4466 9.85382 13.4466 10.4967C13.4466 12.1236 12.1209 13.4552 10.4869 13.4552C8.85281 13.4552 7.54031 12.1236 7.54031 10.4967C7.54031 9.85382 7.75031 9.25687 8.09812 8.77143ZM17.2594 15.6462C17.2594 16.5318 16.5375 17.2534 15.6516 17.2534H5.34844C4.4625 17.2534 3.74062 16.5318 3.74062 15.6462V8.77143H6.2475C6.03094 9.30279 5.90625 9.88662 5.90625 10.4967C5.90625 13.0288 7.96687 15.0887 10.5 15.0887C13.0331 15.0887 15.0937 13.0288 15.0937 10.4967C15.0937 9.88662 14.9691 9.30279 14.7525 8.77143H17.2594V15.6462Z"
              fill="#7572D5"/>
    </g>
    <g id="telegram">
        <path d="M18.9057 4.76449L16.3705 16.7208C16.1791 17.5644 15.6804 17.7745 14.9717 17.3772L11.1085 14.5305L9.24472 16.3235C9.0383 16.5299 8.86608 16.7022 8.46824 16.7022L8.74607 12.7681L15.9054 6.29885C16.2169 6.02162 15.8376 5.86741 15.4218 6.14524L6.57084 11.7186L2.76043 10.5257C1.93174 10.2671 1.91674 9.69701 2.93325 9.29917L17.837 3.55716C18.5271 3.29854 19.1308 3.71018 18.9057 4.76449Z"
              fill="#1F1F20"/>
    </g>
    <g id="link">
        <path d="M5.80637 7.88611H2.53296V18.3623H5.80637V7.88611Z" fill="#7572D5"/>
        <path d="M4.10079 2.93994C2.89376 2.93994 2.10001 3.72057 2.10001 4.75704C2.10001 5.77383 2.86752 6.57415 4.05487 6.57415H4.08111C5.31437 6.57415 6.08189 5.76727 6.07533 4.75704C6.04909 3.72057 5.30781 2.93994 4.10079 2.93994Z"
              fill="#7572D5"/>
        <path d="M14.7476 7.78772C12.8714 7.78772 11.6972 8.81107 11.4807 9.53266V7.88612H7.8006C7.84652 8.75859 7.8006 18.3623 7.8006 18.3623H11.4807V12.7011C11.4807 12.3797 11.4676 12.0648 11.5594 11.8418C11.8087 11.212 12.3532 10.556 13.3306 10.556C14.6098 10.556 15.1871 11.5269 15.1871 12.9438V18.3623H18.9V12.5371C18.9 9.29651 17.0764 7.78772 14.7476 7.78772Z"
              fill="#7572D5"/>
    </g>


<!--    quoute-->
        <g id="quotes">
            <path d="M13.5417 20.8333C13.0771 20.8333 12.6312 20.9042 12.1875 20.9688C12.3312 20.4854 12.4792 19.9938 12.7167 19.5521C12.9542 18.9104 13.325 18.3542 13.6937 17.7938C14.0021 17.1875 14.5458 16.7771 14.9458 16.2583C15.3646 15.7542 15.9354 15.4188 16.3875 15C16.8312 14.5625 17.4125 14.3438 17.875 14.0354C18.3583 13.7583 18.7792 13.4521 19.2292 13.3063L20.3521 12.8438L21.3396 12.4333L20.3292 8.39584L19.0854 8.69584C18.6875 8.79584 18.2021 8.9125 17.65 9.05209C17.0854 9.15625 16.4833 9.44167 15.8125 9.70209C15.15 9.99792 14.3833 10.1979 13.6708 10.6729C12.9542 11.1271 12.1271 11.5063 11.3979 12.1146C10.6917 12.7417 9.83958 13.2854 9.21041 14.0833C8.52291 14.8292 7.84375 15.6125 7.31666 16.5042C6.70625 17.3542 6.29166 18.2875 5.85416 19.2104C5.45833 20.1333 5.13958 21.0771 4.87916 21.9938C4.38541 23.8313 4.16458 25.5771 4.07916 27.0708C4.00833 28.5667 4.05 29.8104 4.1375 30.7104C4.16875 31.1354 4.22708 31.5479 4.26875 31.8333L4.32083 32.1833L4.375 32.1708C4.74554 33.9017 5.59855 35.4924 6.83534 36.7587C8.07213 38.0251 9.64217 38.9154 11.3638 39.3267C13.0855 39.738 14.8884 39.6535 16.5641 39.083C18.2397 38.5124 19.7196 37.4792 20.8325 36.1027C21.9454 34.7262 22.6459 33.0628 22.853 31.3048C23.06 29.5468 22.7651 27.7662 22.0024 26.1688C21.2396 24.5714 20.0403 23.2226 18.543 22.2784C17.0458 21.3342 15.3118 20.8332 13.5417 20.8333ZM36.4583 20.8333C35.9937 20.8333 35.5479 20.9042 35.1042 20.9688C35.2479 20.4854 35.3958 19.9938 35.6333 19.5521C35.8708 18.9104 36.2417 18.3542 36.6104 17.7938C36.9188 17.1875 37.4625 16.7771 37.8625 16.2583C38.2812 15.7542 38.8521 15.4188 39.3042 15C39.7479 14.5625 40.3292 14.3438 40.7917 14.0354C41.275 13.7583 41.6958 13.4521 42.1458 13.3063L43.2687 12.8438L44.2562 12.4333L43.2458 8.39584L42.0021 8.69584C41.6042 8.79584 41.1187 8.9125 40.5667 9.05209C40.0021 9.15625 39.4 9.44167 38.7292 9.70209C38.0688 10 37.3 10.1979 36.5875 10.675C35.8708 11.1292 35.0438 11.5083 34.3146 12.1167C33.6083 12.7438 32.7562 13.2875 32.1271 14.0833C31.4396 14.8292 30.7604 15.6125 30.2333 16.5042C29.6229 17.3542 29.2083 18.2875 28.7708 19.2104C28.375 20.1333 28.0562 21.0771 27.7958 21.9938C27.3021 23.8313 27.0812 25.5771 26.9958 27.0708C26.925 28.5667 26.9667 29.8104 27.0542 30.7104C27.0854 31.1354 27.1437 31.5479 27.1854 31.8333L27.2375 32.1833L27.2917 32.1708C27.6622 33.9017 28.5152 35.4924 29.752 36.7587C30.9888 38.0251 32.5588 38.9154 34.2805 39.3267C36.0022 39.738 37.8051 39.6535 39.4807 39.083C41.1564 38.5124 42.6363 37.4792 43.7492 36.1027C44.8621 34.7262 45.5626 33.0628 45.7696 31.3048C45.9766 29.5468 45.6817 27.7662 44.919 26.1688C44.1563 24.5714 42.957 23.2226 41.4597 22.2784C39.9624 21.3342 38.2284 20.8332 36.4583 20.8333Z" fill="#7572D5"/>
        </g>

</svg>
