
<svg id="M" version="1.0" xmlns="http://www.w3.org/2000/svg"
 width="16.000000pt" height="16.000000pt" viewBox="0 0 16.000000 16.000000"
 preserveAspectRatio="xMidYMid meet">
<g transform="translate(0.000000,16.000000) scale(0.100000,-0.100000)"
fill="red" stroke="red">
<path d="M30 85 c0 -37 4 -65 10 -65 6 0 10 19 10 42 0 39 1 40 18 25 17 -15
19 -15 35 0 16 16 17 15 17 -25 0 -23 5 -42 10 -42 6 0 10 28 10 65 0 68 -15
87 -35 44 -6 -12 -14 -22 -20 -22 -5 0 -14 10 -20 22 -20 43 -35 24 -35 -44z"/>
</g>
</svg>
